# xmcd
#
# Track frame offsets:
#	150
#	9907
#	16330
#	24362
#	30715
#	39105
#	46177
#	53827
#	62060
#	68545
#	75455
#	82367
#	89300
#	97310
#	104180
#	111070
#	117990
#	124842
#	131827
#	139187
#	146305
#	153420
#	160462
#	166215
#	173150
#	180220
#	184605
#	188970
#	193782
#
# Disc length: 2693 seconds
#
# Revision: 1
# Processed by: cddbd v1.5.1PL0 Copyright (c) Steve Scherf et al.
# Submitted via: CDex 1.50Beta5
#
DISCID=840a831d
DTITLE=長沢ヒロ - 東京ムービー・アンソロジー5 1992〜1998
DYEAR=2001
DGENRE=
TTITLE0=長沢ヒロ/フューチャーヒーロー
TTITLE1=金田探偵事務所/僕らは冒険者
TTITLE2=清水咲斗子/フューチャーヒーロー
TTITLE3=清水咲斗子/Get Your Dream
TTITLE4=MANA/君に逢えたから
TTITLE5=MANA/Little Wing
TTITLE6=石原慎一/戦え!レッドバロン
TTITLE7=本島一弥/夢を見たかい
TTITLE8=吉成圭子/明日への勇気
TTITLE9=中村あゆみ/キライになれない
TTITLE10=本田美奈子/ら・ら・ば・い〜優しく抱かせて〜
TTITLE11=吉成圭子/いつか輝く
TTITLE12=林浩治/wild vision
TTITLE13=ビビアン・スー/くちびるの神話
TTITLE14=ビビアン・スー/共犯者
TTITLE15=光吉猛修/愛がたりないぜ
TTITLE16=世古あき子/永遠の真ん中で
TTITLE17=松雪泰子/時を越えて
TTITLE18=井上昌己/純心
TTITLE19=井上昌己/Up Side Down〜永遠の環〜
TTITLE20=梶谷美由紀/夢見るメロディー
TTITLE21=ZIGGY/STEP BY STEP
TTITLE22=VELVET GARDEN/Feel Your Heart
TTITLE23=フェンス・オブ・ディフェンス/遙か〜SAILING FOR MY DREAM〜
TTITLE24=BLUEBOY/僕の生き方
TTITLE25=河合夕子/恋は揺れるメロディー
TTITLE26=河合夕子/夢の国で逢いましょう
TTITLE27=TVサントラ/デビルマンレディー・メインテーマ
TTITLE28=田村ゆかり/REBIRTH〜女神転生〜
EXTD=
EXTT0=
EXTT1=
EXTT2=
EXTT3=
EXTT4=
EXTT5=
EXTT6=
EXTT7=
EXTT8=
EXTT9=
EXTT10=
EXTT11=
EXTT12=
EXTT13=
EXTT14=
EXTT15=
EXTT16=
EXTT17=
EXTT18=
EXTT19=
EXTT20=
EXTT21=
EXTT22=
EXTT23=
EXTT24=
EXTT25=
EXTT26=
EXTT27=
EXTT28=
PLAYORDER=
